<svg width="157" height="56" viewBox="0 0 157 56" fill="currentColor" xmlns="http://www.w3.org/2000/svg">
<path fill-rule="evenodd" clip-rule="evenodd" d="M77.3333 0.5C79.2663 0.5 80.8333 2.06701 80.8333 4V48.8333V50.5H86.6667C88.0474 50.5 89.1667 51.6193 89.1667 53C89.1667 54.3807 88.0474 55.5 86.6667 55.5H77.3385L77.3333 55.5H12.6667L12.6614 55.5H3.33331C1.9526 55.5 0.833313 54.3807 0.833313 53C0.833313 51.6193 1.9526 50.5 3.33331 50.5H9.16665V48.8378L9.16665 48.8333L9.16665 48.8289V4C9.16665 2.067 10.7337 0.5 12.6667 0.5H77.3333ZM103.743 10.304L103.623 14.264C103.623 16.44 103.687 18.392 103.815 20.12C103.943 21.832 104.231 23.696 104.679 25.712C104.327 26 103.767 26.144 102.999 26.144C101.511 26.144 100.767 25.496 100.767 24.2C100.767 23.128 100.815 21.488 100.911 19.28C101.023 17.072 101.079 15.344 101.079 14.096C100.215 15.344 99.3029 16.888 98.3429 18.728C97.3989 20.552 96.9269 21.672 96.9269 22.088C96.9269 22.504 96.9669 22.824 97.0469 23.048C96.6949 23.272 96.2229 23.384 95.6309 23.384C95.0549 23.384 94.5669 23.224 94.1669 22.904C93.7829 22.584 93.4549 22.144 93.1829 21.584C92.9269 21.024 92.4629 19.928 91.7909 18.296C91.1349 16.648 90.5349 15.232 89.9909 14.048C89.5749 16.624 89.3669 18.904 89.3669 20.888C89.3669 22.872 89.4309 24.48 89.5589 25.712C89.0469 25.904 88.5349 26 88.0229 26C86.9989 26 86.4869 25.488 86.4869 24.464C86.4869 23.68 86.6629 22.12 87.0149 19.784C87.3829 17.432 87.5669 15.448 87.5669 13.832C87.5669 12.216 87.4789 10.704 87.3029 9.296C88.1669 9.072 88.8389 8.96 89.3189 8.96C90.1989 8.96 90.7909 9.272 91.0949 9.896C91.5749 10.904 92.2789 12.512 93.2069 14.72C94.1509 16.912 94.9189 18.6 95.5109 19.784C95.6709 19.448 96.0389 18.728 96.6149 17.624C97.2069 16.504 97.6949 15.552 98.0789 14.768C98.4789 13.968 98.8789 13.024 99.2789 11.936C99.6949 10.832 99.9589 9.872 100.071 9.056C100.647 8.896 101.207 8.816 101.751 8.816C102.311 8.816 102.783 8.936 103.167 9.176C103.551 9.416 103.743 9.792 103.743 10.304ZM109.15 20.552C109.15 21.704 109.334 22.616 109.702 23.288C110.07 23.944 110.686 24.272 111.55 24.272C112.414 24.272 113.086 23.984 113.566 23.408C114.062 22.816 114.31 22.104 114.31 21.272C114.854 21.272 115.326 21.408 115.726 21.68C116.126 21.952 116.326 22.328 116.326 22.808C116.326 23.8 115.798 24.632 114.742 25.304C113.686 25.96 112.574 26.288 111.406 26.288C109.582 26.288 108.262 25.8 107.446 24.824C106.63 23.832 106.222 22.368 106.222 20.432C106.222 18.496 106.766 16.872 107.854 15.56C108.958 14.232 110.422 13.568 112.246 13.568C113.494 13.568 114.494 13.856 115.246 14.432C116.014 14.992 116.398 15.872 116.398 17.072C116.398 18.256 115.854 19.152 114.766 19.76C113.694 20.352 112.382 20.648 110.83 20.648C110.286 20.648 109.726 20.616 109.15 20.552ZM109.174 18.656C109.654 18.752 110.158 18.8 110.686 18.8C111.838 18.8 112.806 18.584 113.59 18.152C113.686 17.768 113.734 17.464 113.734 17.24C113.734 16.68 113.534 16.256 113.134 15.968C112.734 15.68 112.182 15.536 111.478 15.536C110.79 15.536 110.166 15.76 109.606 16.208C109.318 17.04 109.174 17.856 109.174 18.656ZM121.638 18.44C122.198 17.256 123.03 16.176 124.134 15.2C125.254 14.208 126.382 13.712 127.518 13.712C129.118 13.712 129.918 14.56 129.918 16.256C129.918 17.12 129.518 18.048 128.718 19.04C127.934 20.016 127.054 20.792 126.078 21.368C126.526 22.152 127.078 22.752 127.734 23.168C128.406 23.568 129.286 23.888 130.374 24.128C130.374 24.752 130.222 25.248 129.918 25.616C129.63 25.968 129.214 26.144 128.67 26.144C127.582 26.144 126.518 25.624 125.478 24.584C124.438 23.528 123.654 22.352 123.126 21.056C124.15 20.544 125.03 19.936 125.766 19.232C126.518 18.528 126.894 17.824 126.894 17.12C126.894 16.416 126.678 16.064 126.246 16.064C125.414 16.064 124.486 16.824 123.462 18.344C122.454 19.864 121.87 21.128 121.71 22.136C121.742 22.6 121.902 23.792 122.19 25.712C121.694 25.904 121.15 26 120.558 26C119.326 26 118.71 25.4 118.71 24.2C118.71 23.624 118.798 22.496 118.974 20.816C119.15 19.12 119.238 17.76 119.238 16.736C119.238 13.328 119.046 10.512 118.662 8.288C119.174 8.096 119.702 8 120.246 8C120.79 8 121.238 8.184 121.59 8.552C121.958 8.904 122.142 9.392 122.142 10.016C122.142 10.64 122.054 11.928 121.878 13.88C121.718 15.832 121.638 17.352 121.638 18.44ZM142.945 16.304L142.705 21.584C142.705 22.992 142.937 24.416 143.401 25.856C142.905 26.048 142.401 26.144 141.889 26.144C140.497 26.144 139.801 25.408 139.801 23.936C139.801 22.848 139.897 21.568 140.089 20.096C140.281 18.624 140.377 17.72 140.377 17.384C140.377 16.552 140.001 16.136 139.249 16.136C138.449 16.136 137.561 16.888 136.585 18.392C135.609 19.88 135.049 21.128 134.905 22.136C134.937 22.6 135.097 23.792 135.385 25.712C134.889 25.904 134.345 26 133.753 26C132.521 26 131.905 25.4 131.905 24.2C131.905 23.624 131.993 22.496 132.169 20.816C132.345 19.12 132.433 17.76 132.433 16.736C132.433 13.328 132.241 10.512 131.857 8.288C132.369 8.096 132.897 8 133.441 8C133.985 8 134.433 8.184 134.785 8.552C135.153 8.904 135.337 9.392 135.337 10.016C135.337 10.64 135.249 11.928 135.073 13.88C134.913 15.832 134.833 17.352 134.833 18.44C135.393 17.256 136.209 16.176 137.281 15.2C138.369 14.208 139.449 13.712 140.521 13.712C142.137 13.712 142.945 14.576 142.945 16.304ZM150.218 26.288C148.458 26.288 147.162 25.776 146.33 24.752C145.498 23.712 145.082 22.272 145.082 20.432C145.082 18.576 145.634 16.968 146.738 15.608C147.842 14.248 149.258 13.568 150.986 13.568C154.538 13.568 156.314 15.568 156.314 19.568C156.314 21.44 155.738 23.032 154.586 24.344C153.434 25.64 151.978 26.288 150.218 26.288ZM148.49 16.208C148.202 17.136 148.058 18.064 148.058 18.992C148.058 19.92 148.09 20.64 148.154 21.152C148.218 21.664 148.338 22.176 148.514 22.688C148.882 23.728 149.602 24.248 150.674 24.248C151.762 24.248 152.474 23.96 152.81 23.384C153.162 22.808 153.338 21.92 153.338 20.72C153.338 17.312 152.53 15.608 150.914 15.608C149.986 15.608 149.178 15.808 148.49 16.208ZM100.356 35.796C102.084 35.34 103.59 35.112 104.874 35.112C107.622 35.112 108.996 36.066 108.996 37.974C108.996 39.138 108.45 40.026 107.358 40.638C108.09 40.818 108.696 41.166 109.176 41.682C109.656 42.186 109.896 42.822 109.896 43.59C109.896 45.03 109.362 46.146 108.294 46.938C107.226 47.718 105.906 48.108 104.334 48.108C102.762 48.108 101.4 47.796 100.248 47.172C100.62 45.876 100.806 44.13 100.806 41.934C100.806 39.726 100.656 37.68 100.356 35.796ZM103.074 46.164C103.602 46.332 104.13 46.416 104.658 46.416C105.486 46.416 106.17 46.212 106.71 45.804C107.25 45.384 107.52 44.796 107.52 44.04C107.52 42.6 106.74 41.88 105.18 41.88C104.436 41.88 103.68 42.036 102.912 42.348C102.912 43.56 102.966 44.832 103.074 46.164ZM102.894 40.764C103.062 40.728 103.308 40.686 103.632 40.638C103.968 40.59 104.226 40.548 104.406 40.512C104.586 40.476 104.808 40.422 105.072 40.35C105.348 40.278 105.558 40.194 105.702 40.098C105.858 39.99 106.014 39.858 106.17 39.702C106.47 39.402 106.62 38.964 106.62 38.388C106.62 37.272 105.954 36.714 104.622 36.714C104.19 36.714 103.662 36.786 103.038 36.93C102.942 39.39 102.894 40.668 102.894 40.764ZM111.745 34.716C112.129 34.572 112.525 34.5 112.933 34.5C113.341 34.5 113.677 34.638 113.941 34.914C114.217 35.178 114.355 35.544 114.355 36.012C114.355 36.468 114.289 37.392 114.157 38.784C114.037 40.164 113.977 41.25 113.977 42.042C113.977 43.998 114.115 45.912 114.391 47.784C114.007 47.928 113.599 48 113.167 48C112.243 48 111.781 47.55 111.781 46.65C111.781 46.218 111.847 45.372 111.979 44.112C112.111 42.84 112.177 41.82 112.177 41.052C112.177 38.496 112.033 36.384 111.745 34.716ZM119.657 48.216C118.337 48.216 117.365 47.832 116.741 47.064C116.117 46.284 115.805 45.204 115.805 43.824C115.805 42.432 116.219 41.226 117.047 40.206C117.875 39.186 118.937 38.676 120.233 38.676C122.897 38.676 124.229 40.176 124.229 43.176C124.229 44.58 123.797 45.774 122.933 46.758C122.069 47.73 120.977 48.216 119.657 48.216ZM118.361 40.656C118.145 41.352 118.037 42.048 118.037 42.744C118.037 43.44 118.061 43.98 118.109 44.364C118.157 44.748 118.247 45.132 118.379 45.516C118.655 46.296 119.195 46.686 119.999 46.686C120.815 46.686 121.349 46.47 121.601 46.038C121.865 45.606 121.997 44.94 121.997 44.04C121.997 41.484 121.391 40.206 120.179 40.206C119.483 40.206 118.877 40.356 118.361 40.656ZM131.765 40.602C131.129 40.41 130.499 40.314 129.875 40.314C129.251 40.314 128.663 40.5 128.111 40.872C127.679 41.736 127.463 42.654 127.463 43.626C127.463 44.19 127.541 44.742 127.697 45.282C127.853 45.81 128.111 46.074 128.471 46.074C128.879 46.074 129.425 45.492 130.109 44.328C130.793 43.164 131.345 41.922 131.765 40.602ZM129.065 50.952C129.833 50.952 130.433 50.688 130.865 50.16C131.297 49.632 131.513 48.954 131.513 48.126C131.513 47.718 131.483 47.124 131.423 46.344C131.375 45.564 131.345 45.012 131.333 44.688C130.481 46.176 129.737 47.088 129.101 47.424C128.777 47.592 128.435 47.676 128.075 47.676C127.175 47.676 126.479 47.322 125.987 46.614C125.495 45.906 125.249 45.042 125.249 44.022C125.249 42.63 125.681 41.412 126.545 40.368C127.421 39.312 128.525 38.784 129.857 38.784C131.201 38.784 132.557 39.018 133.925 39.486C133.565 40.77 133.385 42.03 133.385 43.266C133.385 43.854 133.427 44.586 133.511 45.462C133.595 46.326 133.637 46.968 133.637 47.388C133.637 48.864 133.169 50.082 132.233 51.042C131.297 52.014 130.097 52.5 128.633 52.5C127.769 52.5 127.025 52.332 126.401 51.996C125.789 51.672 125.483 51.162 125.483 50.466C125.483 50.034 125.645 49.668 125.969 49.368C126.293 49.068 126.677 48.918 127.121 48.918C127.217 48.918 127.337 48.93 127.481 48.954C127.445 49.11 127.427 49.248 127.427 49.368C127.427 49.8 127.589 50.172 127.913 50.484C128.237 50.796 128.621 50.952 129.065 50.952ZM137.179 44.724C137.143 44.892 137.125 45.03 137.125 45.138C137.125 45.63 137.269 46.008 137.557 46.272C137.857 46.536 138.253 46.668 138.745 46.668C139.249 46.668 139.663 46.578 139.987 46.398C140.323 46.206 140.491 45.924 140.491 45.552C140.491 45.18 140.311 44.886 139.951 44.67C139.603 44.442 139.177 44.262 138.673 44.13C138.181 43.998 137.683 43.854 137.179 43.698C136.675 43.53 136.243 43.272 135.883 42.924C135.535 42.576 135.361 42.138 135.361 41.61C135.361 40.782 135.799 40.086 136.675 39.522C137.551 38.958 138.469 38.676 139.429 38.676C140.485 38.676 141.289 38.892 141.841 39.324C142.165 39.576 142.327 39.912 142.327 40.332C142.327 40.74 142.165 41.076 141.841 41.34C141.529 41.592 141.145 41.718 140.689 41.718C140.593 41.718 140.473 41.706 140.329 41.682C140.365 41.526 140.383 41.388 140.383 41.268C140.383 40.92 140.251 40.656 139.987 40.476C139.723 40.296 139.363 40.206 138.907 40.206C138.463 40.206 138.055 40.296 137.683 40.476C137.539 40.668 137.467 40.914 137.467 41.214C137.467 41.514 137.641 41.76 137.989 41.952C138.337 42.132 138.757 42.294 139.249 42.438C139.753 42.57 140.257 42.726 140.761 42.906C141.265 43.074 141.691 43.344 142.039 43.716C142.387 44.076 142.561 44.532 142.561 45.084C142.561 45.984 142.111 46.734 141.211 47.334C140.323 47.922 139.405 48.216 138.457 48.216C137.509 48.216 136.723 48.048 136.099 47.712C135.487 47.364 135.181 46.842 135.181 46.146C135.181 45.714 135.337 45.366 135.649 45.102C135.973 44.826 136.363 44.688 136.819 44.688C136.915 44.688 137.035 44.7 137.179 44.724ZM15 6H75V46H15V6Z" />
</svg>
